<?xml version="1.0" standalone="no"?><!DOCTYPE svg PUBLIC "-//W3C//DTD SVG 1.1//EN" "http://www.w3.org/Graphics/SVG/1.1/DTD/svg11.dtd"><svg t="1728398609947" class="icon" viewBox="0 0 1024 1024" version="1.1" xmlns="http://www.w3.org/2000/svg" p-id="23244" width="80" height="80" xmlns:xlink="http://www.w3.org/1999/xlink"><path d="M872.9 812H549.2c-24.9 0-37.4 12.5-37.4 37.4s12.5 37.4 37.4 37.4H873c24.9 0 37.4-12.5 37.4-37.4-0.1-24.9-12.6-37.4-37.5-37.4zM549.2 787.1H873c24.9 0 37.4-12.5 37.4-37.4s-12.5-37.4-37.4-37.4H549.2c-24.9 0-37.4 12.5-37.4 37.4s12.4 37.4 37.4 37.4z" fill="#64D1C4" p-id="23245"></path><path d="M511.8 114.7c-467 0-558.1 145.3-324.6 517.6 233.5 372.4 415.7 372.4 649.2 0 233.5-372.4 142.4-517.6-324.6-517.6z m112.5 357.5c-7.8 18.7-15.7 37-23.5 54.9-7.8 17.9-14.7 34-20.8 48.3-7 16.6-14.1 33.1-21.4 49.5-4.3 9-10.9 16.7-19.1 22.3-5.3 3.7-11 6.7-17 9-7 2.6-14.5 3.8-22 3.6-8.2 0-15.4-1.3-21.7-4-14.5-6-26.2-17.3-32.9-31.5-24.3-65.5-48.9-130.9-73.8-196.3-3.2-9.1-7.3-18-12.1-26.4-2.8-5.2-7-9.5-12-12.6-4.3-2.3-9.1-3-14.3-2.3-6.7 1.1-13.2 2.6-19.7 4.6-2-8.5-2.1-17.2-0.3-25.8 1.7-8 5.2-15.4 10.3-21.8 5.1-6.5 11.5-12 19.4-16.6 8.2-4.7 17.1-8.2 26.4-10.3 19.6-5 35.9-4.2 49 2.2 13.1 6.5 22.6 17.2 28.4 32.1 1.6 4.6 4.9 13.3 10 26.3s11 28.4 17.6 46.1l21.7 57.3 22.9 59.8 82.6-192c4.1-8.6 11.5-15.2 20.5-18.3 9.4-3.4 18.9-5.5 28.7-6.3 11.4-1.2 23.4-1 36.3 0.5-20.9 49.3-42.1 98.5-63.2 147.7z" fill="#2FC99F" p-id="23246"></path></svg>